<svg width="200" height="200" viewBox="0 0 200 200" fill="none" xmlns="http://www.w3.org/2000/svg">
<path d="M81.25 25C84.7004 25 87.5 22.2004 87.5 18.75V6.25C87.5 2.79961 84.7004 0 81.25 0C77.7996 0 75 2.79961 75 6.25V18.75C75 22.2004 77.7996 25 81.25 25ZM129.859 41.4715L138.696 32.6336C141.137 30.1922 141.137 26.2371 138.696 23.7957C136.255 21.3543 132.3 21.3543 129.859 23.7957L121.021 32.6336C118.579 35.075 118.579 39.0301 121.021 41.4715C123.462 43.9129 127.417 43.9129 129.859 41.4715ZM6.25 87.5H18.75C22.2004 87.5 25 84.7004 25 81.25C25 77.7996 22.2004 75 18.75 75H6.25C2.79961 75 0 77.7996 0 81.25C0 84.7004 2.79961 87.5 6.25 87.5ZM137.5 81.25C137.5 84.7004 140.3 87.5 143.75 87.5H156.25C159.7 87.5 162.5 84.7004 162.5 81.25C162.5 77.7996 159.7 75 156.25 75H143.75C140.3 75 137.5 77.7996 137.5 81.25ZM32.6332 41.4715C35.075 43.9129 39.0301 43.9129 41.4711 41.4715C43.9129 39.0301 43.9129 35.075 41.4711 32.6336L32.6332 23.7957C30.1918 21.3543 26.2371 21.3543 23.7953 23.7957C21.3539 26.2371 21.3539 30.1922 23.7953 32.6336L32.6332 41.4715ZM156.25 100C154.175 100 152.124 100.146 150.081 100.439C143.53 91.5039 134.798 84.6844 124.902 80.3223C124.398 56.6406 105.054 37.5 81.25 37.5C57.1289 37.5 37.5 57.1289 37.5 81.25C37.5 88.0617 39.193 94.4336 41.9922 100.171C18.7012 101.123 0 120.239 0 143.75C0 167.871 19.6289 187.5 43.75 187.5C49.0969 187.5 54.3297 186.523 59.2613 184.636C70.5727 194.499 84.9609 200 100 200C115.055 200 129.427 194.499 140.739 184.636C145.67 186.523 150.903 187.5 156.25 187.5C180.371 187.5 200 167.871 200 143.75C200 119.629 180.371 100 156.25 100ZM81.25 50C96.8016 50 109.595 61.3934 111.995 76.2695C108.081 75.4883 104.086 75 100 75C82.0555 75 65.4297 82.7391 53.7598 95.8008C51.4406 91.4387 50 86.5398 50 81.25C50 63.9891 63.9891 50 81.25 50ZM156.25 175C149.561 175 143.392 172.852 138.305 169.271C129.134 180.322 115.478 187.5 100 187.5C84.5215 187.5 70.8656 180.322 61.6945 169.271C56.6164 172.852 50.4395 175 43.75 175C26.4891 175 12.5 161.011 12.5 143.75C12.5 126.489 26.4891 112.5 43.75 112.5C46.7773 112.5 49.6336 113.07 52.3926 113.883C53.491 114.193 54.6062 114.437 55.6395 114.868C57.3484 111.523 59.4969 108.463 61.8812 105.591C71.0125 94.6047 84.5945 87.5 100 87.5C103.955 87.5 107.748 88.0695 111.426 88.9488C115.552 89.925 119.45 91.4062 123.08 93.3594C132.178 98.1934 139.648 105.68 144.352 114.868C148.023 113.355 152.035 112.5 156.25 112.5C173.511 112.5 187.5 126.489 187.5 143.75C187.5 161.011 173.511 175 156.25 175Z" fill="#354455"/>
</svg>
